<?xml version="1.0" encoding="utf-8"?>
<!-- Generator: Adobe Illustrator 25.0.1, SVG Export Plug-In . SVG Version: 6.00 Build 0)  -->
<svg version="1.1" id="outline" xmlns="http://www.w3.org/2000/svg" xmlns:xlink="http://www.w3.org/1999/xlink" x="0px" y="0px"
	 viewBox="0 0 512 512" style="enable-background:new 0 0 512 512;" xml:space="preserve">
<style type="text/css">
	.st0{fill:#1F8FFF;}
</style>
<path class="st0" d="M216,496h104c4.4,0,8-3.6,8-8c0,0,0,0,0,0c0-17.7-9.3-34.1-24.5-43.2l-13.3-8c7.7-20.3,2.8-43.2-12.6-58.5
	c-2.7-2.7-6.9-3.1-10.1-1L201,421.7l-14.2-14.2c-20.4-20.4-24.7-51.9-10.5-77l34.7,27.7c3.4,2.8,8.5,2.2,11.2-1.2
	c0.5-0.6,0.9-1.3,1.2-2l5.3-13.2c6.5-16.3,5.9-34.7-1.7-50.5l68-38.5c0.6-0.4,1.3-0.7,1.9-1.1c2.9,18.4,12.5,35,27.1,46.6l11.8,9.4
	c8.6,6.8,21,5.5,27.9-3.1c2.8-3.5,4.3-7.9,4.3-12.4v-50.3c0-11.5-5.3-22.3-14.4-29.3c45.8-37.4,83.2-84.1,109.6-137
	c1.5-3.1,0.9-6.8-1.5-9.2l-8-8c-1.5-1.5-3.5-2.3-5.7-2.3h-12.7l10.3-10.3c1.5-1.5,2.3-3.5,2.3-5.7V24c0-4.4-3.6-8-8-8c0,0,0,0,0,0
	h-80c-18.5,0-36.9,1.6-55.1,4.8l-0.2-0.1l-0.1,0.1C261.7,28.5,221,45.1,185,69.6l-33.3-33.3c-8.7-8.7-22.7-8.7-31.4,0c0,0,0,0,0,0
	C75.4,81.3,57,146.3,71.8,208.1C56,246.1,47.9,286.8,48,328C48,420.6,123.4,496,216,496z M270.5,394.6c8,11.3,9.5,25.9,3.9,38.6
	l-12.4,3.1l3.9,15.5l12.8-3.2l16.6,9.9c7.9,4.8,13.6,12.5,15.7,21.5h-87v-9.4c0-13.3-4.2-26.3-12.1-37L270.5,394.6z M213.9,335.8
	l-1.3,3.2l-26.7-21.4c4.3-4.5,9.3-8.4,14.7-11.4l12.5-7.1C218.3,310.7,218.6,324,213.9,335.8z M352,241.9v50.3
	c0,2.1-1.7,3.8-3.8,3.8c-0.9,0-1.7-0.3-2.4-0.8l-11.8-9.4c-13.3-10.6-21.3-26.4-21.9-43.3c9.8-6.2,19.3-12.7,28.5-19.6l-0.2,0.3
	C347.5,226.7,352,233.9,352,241.9z M432,32v4.7l-21.7,21.7c-3.1,3.1-3.1,8.2,0,11.3c1.5,1.5,3.5,2.3,5.7,2.3h28.7l1.5,1.5
	c-13,25-28.5,48.7-46.4,70.5h-47.2c-30.6,0-55.4-24.8-55.4-55.4c0-7.7,1.6-15.4,4.8-22.5l13.7-30.9c14.7-2.2,29.4-3.3,44.3-3.3H432z
	 M287.4,59.7c-2,4.6-3.6,9.3-4.6,14.2l-68.1,52.6l9.8,12.7l57.1-44.1c3.3,36.8,34.1,65,71,64.9H386c-28.6,31.3-62,57.9-98.9,78.8
	l-94.4,53.5c-38.5,21.8-52.1,70.8-30.2,109.3c3.6,6.3,8,12.1,13.1,17.2l18.8,18.8c2.8,2.8,5.2,5.9,7.2,9.2
	c-30.3-4.6-56.6-23.4-70.7-50.6l-14.2,7.4c17.8,34.4,52.2,57.1,90.9,60c0.3,2.3,0.5,4.6,0.5,7v9.2C127.9,475.6,64,409.1,64,328
	c0-139.1,96.8-259.4,232.7-289.2L287.4,59.7z M88.8,121.1c7.7-27.7,22.4-53,42.8-73.4c2.4-2.4,6.3-2.4,8.7,0c0,0,0,0,0,0l31.4,31.4
	c-4.8,3.6-9.5,7.4-14.1,11.3l-24.1-24.1l-11.3,11.3l23.5,23.5c-2.2,2.1-4.3,4.1-6.4,6.2c-2.1,2.1-4.2,4.3-6.2,6.4l-15.5-15.5
	l-11.3,11.3l16.1,16.1c-3.9,4.6-7.7,9.3-11.3,14.1l-9.5-9.5l-11.3,11.3l11.3,11.3c-6.5,9.6-12.5,19.6-17.9,29.8
	C81.5,162.1,83.3,141.2,88.8,121.1z"/>
<path class="st0" d="M360,88c13.3,0,24-10.7,24-24s-10.7-24-24-24s-24,10.7-24,24C336,77.2,346.8,88,360,88z M360,56
	c4.4,0,8,3.6,8,8s-3.6,8-8,8s-8-3.6-8-8C352,59.6,355.6,56,360,56z"/>
<path class="st0" d="M188.7,207.5c3.2,9.7,12,16.6,22.2,17.4l40.7,3.1c1.4,0.1,2.8,0.2,4.3,0.2c30.9,0,56-25,56-56c0,0,0,0,0,0V168
	h-16v4.2c0,22.1-17.9,40-40,40c-1,0-2,0-3.1-0.1l-17.9-1.4l17.8-12l-9-13.2l-34,23c-5-1.7-7.6-7.1-5.9-12c0.7-2,2.1-3.8,3.9-5
	l76.5-48.7l-8.6-13.5l-76.5,48.7C189.4,184.2,185,196.4,188.7,207.5z"/>
<rect x="259" y="172" transform="matrix(0.8281 -0.5606 0.5606 0.8281 -55.1635 180.1059)" class="st0" width="14.3" height="16"/>
<path class="st0" d="M145,299.7c-11,11.1-25.5,18.1-41,19.8V296c0-4.4,3.6-8,8-8h32v-16h-11.8c4.9-15.7,11.2-30.9,18.9-45.5
	l-14.2-7.5c-8.9,16.9-16.1,34.6-21.4,53H112c-13.2,0-24,10.8-24,24v32c0,4.4,3.6,8,8,8c0,0,0,0,0,0c2.9,0,5.7-0.1,8.5-0.4
	c-0.3,5.5-0.5,11-0.5,16.4c0,11.7,1.8,23.3,5.4,34.5l15.2-4.9C121.6,372,120,362,120,352c0-6.5,0.3-13.1,0.7-19.6
	c13.4-4.1,25.7-11.4,35.6-21.3l1.4-1.4l-11.3-11.3L145,299.7z"/>
<path class="st0" d="M145.5,203.8l13.7,8.3c3.2-5.3,6.6-10.5,10.2-15.5l-13.1-9.2C152.6,192.7,148.9,198.3,145.5,203.8z"/>
<path class="st0" d="M211.4,150l-10.6-12c-5.9,5.2-11.7,10.8-17.2,16.5l11.5,11.1C200.3,160.2,205.8,154.9,211.4,150z"/>
<rect x="231.8" y="442" transform="matrix(0.9701 -0.2425 0.2425 0.9701 -101.9808 71.6495)" class="st0" width="16.5" height="16"/>
</svg>
